<svg xmlns="http://www.w3.org/2000/svg" viewBox="0 0 900 300" role="img" aria-labelledby="title desc">
  <title id="title">F9 logo</title>
  <desc id="desc">Two orange forward chevrons followed by cream F9 lettering.</desc>
  <defs>
    <linearGradient id="f9-orange" x1="0" x2="1" y1="0" y2="1">
      <stop offset="0" stop-color="#ff5a3a"/>
      <stop offset="1" stop-color="#e8341f"/>
    </linearGradient>
    <linearGradient id="f9-cream" x1="0" x2="1" y1="0" y2="1">
      <stop offset="0" stop-color="#f4efd8"/>
      <stop offset="1" stop-color="#d9d2b6"/>
    </linearGradient>
    <filter id="soft-shadow" x="-20%" y="-20%" width="140%" height="140%">
      <feDropShadow dx="0" dy="8" stdDeviation="8" flood-color="#000" flood-opacity="0.28"/>
    </filter>
  </defs>
  <g filter="url(#soft-shadow)">
    <path fill="url(#f9-orange)" d="M55 47h96l101 103L151 253H55l99-103z"/>
    <path fill="url(#f9-orange)" d="M282 47h96l101 103-101 103h-96l99-103z"/>
    <g fill="url(#f9-cream)" transform="skewX(-8)">
      <path d="M592 55h178l-13 52H650l-12 43h103l-13 51H626l-15 55h-74z"/>
      <path d="M812 53c67 0 111 43 111 106 0 77-55 141-136 141-39 0-72-12-97-36l36-43c17 16 37 24 63 24 37 0 62-22 71-58-18 16-42 24-70 24-50 0-86-31-86-76 0-49 42-82 108-82zm-5 47c-26 0-43 14-43 35 0 20 17 33 43 33 27 0 45-14 45-34 0-21-18-34-45-34z"/>
    </g>
  </g>
</svg>
